<mxfile host="app.diagrams.net" modified="2023-03-31T12:21:32.452Z" agent="Mozilla/5.0 (Macintosh; Intel Mac OS X 10_15_7) AppleWebKit/537.36 (KHTML, like Gecko) Chrome/111.0.0.0 Safari/537.36" etag="oIAbnwObjnLZuiTWPQXC" version="21.1.2" type="device">
  <diagram name="Page-1" id="93VnuNxYh2gsQvyITQv-">
    <mxGraphModel dx="1621" dy="402" grid="1" gridSize="10" guides="1" tooltips="1" connect="1" arrows="1" fold="1" page="1" pageScale="1" pageWidth="827" pageHeight="1169" math="0" shadow="0">
      <root>
        <mxCell id="0" />
        <mxCell id="1" parent="0" />
        <mxCell id="qRXAyHgxc0ocoIdJP8oU-8" value="Selects a&lt;span style=&quot;font-size: 12px; background-color: rgb(251, 251, 251);&quot;&gt;ctivate VC&lt;/span&gt;" style="edgeStyle=orthogonalEdgeStyle;rounded=0;orthogonalLoop=1;jettySize=auto;html=1;entryX=0.5;entryY=0;entryDx=0;entryDy=0;" edge="1" parent="1" source="Qxa5S_glfbw3jdkzJXX0-1" target="qRXAyHgxc0ocoIdJP8oU-1">
          <mxGeometry relative="1" as="geometry" />
        </mxCell>
        <mxCell id="Qxa5S_glfbw3jdkzJXX0-1" value="User is inside&lt;br&gt;VC details&lt;br&gt;Screen" style="ellipse;whiteSpace=wrap;html=1;fillColor=#dae8fc;strokeColor=#6c8ebf;" parent="1" vertex="1">
          <mxGeometry x="30" y="210" width="120" height="80" as="geometry" />
        </mxCell>
        <mxCell id="1QkmKIXsnP00DaD5SYNQ-26" value="" style="ellipse;html=1;shape=endState;fillColor=#000000;strokeColor=#ff0000;" parent="1" vertex="1">
          <mxGeometry x="75" y="930" width="30" height="30" as="geometry" />
        </mxCell>
        <mxCell id="qRXAyHgxc0ocoIdJP8oU-4" value="Yes" style="edgeStyle=orthogonalEdgeStyle;rounded=0;orthogonalLoop=1;jettySize=auto;html=1;" edge="1" parent="1" source="8KHelhcyJ5FLNe6Fu8bT-1" target="qRXAyHgxc0ocoIdJP8oU-3">
          <mxGeometry relative="1" as="geometry" />
        </mxCell>
        <mxCell id="qRXAyHgxc0ocoIdJP8oU-6" style="edgeStyle=orthogonalEdgeStyle;rounded=0;orthogonalLoop=1;jettySize=auto;html=1;entryX=0;entryY=0.5;entryDx=0;entryDy=0;exitX=0;exitY=0.5;exitDx=0;exitDy=0;" edge="1" parent="1" source="8KHelhcyJ5FLNe6Fu8bT-1" target="Qxa5S_glfbw3jdkzJXX0-1">
          <mxGeometry relative="1" as="geometry" />
        </mxCell>
        <mxCell id="qRXAyHgxc0ocoIdJP8oU-7" value="No" style="edgeLabel;html=1;align=center;verticalAlign=middle;resizable=0;points=[];" vertex="1" connectable="0" parent="qRXAyHgxc0ocoIdJP8oU-6">
          <mxGeometry x="-0.5284" y="1" relative="1" as="geometry">
            <mxPoint as="offset" />
          </mxGeometry>
        </mxCell>
        <mxCell id="8KHelhcyJ5FLNe6Fu8bT-1" value="Is Warning&lt;br&gt;Accepted?" style="rhombus;whiteSpace=wrap;html=1;fillColor=#fff2cc;strokeColor=#d6b656;" parent="1" vertex="1">
          <mxGeometry x="25" y="500" width="130" height="80" as="geometry" />
        </mxCell>
        <mxCell id="qRXAyHgxc0ocoIdJP8oU-2" style="edgeStyle=orthogonalEdgeStyle;rounded=0;orthogonalLoop=1;jettySize=auto;html=1;entryX=0.5;entryY=0;entryDx=0;entryDy=0;" edge="1" parent="1" source="qRXAyHgxc0ocoIdJP8oU-1" target="8KHelhcyJ5FLNe6Fu8bT-1">
          <mxGeometry relative="1" as="geometry" />
        </mxCell>
        <mxCell id="qRXAyHgxc0ocoIdJP8oU-1" value="Show warning screen for multiple phone&lt;br&gt;users" style="rounded=1;whiteSpace=wrap;html=1;fillColor=#dae8fc;strokeColor=#6c8ebf;" vertex="1" parent="1">
          <mxGeometry x="30" y="370" width="120" height="60" as="geometry" />
        </mxCell>
        <mxCell id="qRXAyHgxc0ocoIdJP8oU-16" style="edgeStyle=orthogonalEdgeStyle;rounded=0;orthogonalLoop=1;jettySize=auto;html=1;entryX=0;entryY=0;entryDx=0;entryDy=50;entryPerimeter=0;" edge="1" parent="1" source="qRXAyHgxc0ocoIdJP8oU-3" target="qRXAyHgxc0ocoIdJP8oU-12">
          <mxGeometry relative="1" as="geometry" />
        </mxCell>
        <mxCell id="qRXAyHgxc0ocoIdJP8oU-3" value="Show enter OTP Screen" style="rounded=1;whiteSpace=wrap;html=1;fillColor=#dae8fc;strokeColor=#6c8ebf;" vertex="1" parent="1">
          <mxGeometry x="30" y="650" width="120" height="60" as="geometry" />
        </mxCell>
        <mxCell id="qRXAyHgxc0ocoIdJP8oU-11" style="edgeStyle=orthogonalEdgeStyle;rounded=0;orthogonalLoop=1;jettySize=auto;html=1;entryX=0.5;entryY=0;entryDx=0;entryDy=0;" edge="1" parent="1" source="qRXAyHgxc0ocoIdJP8oU-9" target="1QkmKIXsnP00DaD5SYNQ-26">
          <mxGeometry relative="1" as="geometry" />
        </mxCell>
        <mxCell id="qRXAyHgxc0ocoIdJP8oU-9" value="Show VC details screen with VC verified Icon" style="rounded=1;whiteSpace=wrap;html=1;fillColor=#dae8fc;strokeColor=#6c8ebf;" vertex="1" parent="1">
          <mxGeometry x="30" y="830" width="120" height="60" as="geometry" />
        </mxCell>
        <mxCell id="qRXAyHgxc0ocoIdJP8oU-18" style="edgeStyle=orthogonalEdgeStyle;rounded=0;orthogonalLoop=1;jettySize=auto;html=1;" edge="1" parent="1" source="qRXAyHgxc0ocoIdJP8oU-12" target="qRXAyHgxc0ocoIdJP8oU-14">
          <mxGeometry relative="1" as="geometry" />
        </mxCell>
        <mxCell id="qRXAyHgxc0ocoIdJP8oU-12" value="&lt;font style=&quot;font-size: 12px;&quot;&gt;1. Generate Keypair inside app&lt;br&gt;and store private key inside keystore.&lt;br&gt;2. Send public key to Mimoto server for binding credential&lt;br&gt;&lt;/font&gt;" style="html=1;shape=mxgraph.infographic.ribbonSimple;notch1=0;notch2=20;align=center;verticalAlign=middle;fontSize=14;fontStyle=0;whiteSpace=wrap;fillColor=#d5e8d4;strokeColor=#82b366;" vertex="1" parent="1">
          <mxGeometry x="250" y="630" width="200" height="100" as="geometry" />
        </mxCell>
        <mxCell id="qRXAyHgxc0ocoIdJP8oU-15" style="edgeStyle=orthogonalEdgeStyle;rounded=0;orthogonalLoop=1;jettySize=auto;html=1;" edge="1" parent="1" source="qRXAyHgxc0ocoIdJP8oU-14" target="qRXAyHgxc0ocoIdJP8oU-9">
          <mxGeometry relative="1" as="geometry">
            <Array as="points">
              <mxPoint x="620" y="780" />
              <mxPoint x="90" y="780" />
            </Array>
          </mxGeometry>
        </mxCell>
        <mxCell id="qRXAyHgxc0ocoIdJP8oU-14" value="1. Receive binding id from server&lt;br&gt;along with server certificate&lt;br&gt;2. Store server certificate inside&lt;br&gt;keystore" style="html=1;shadow=0;dashed=0;align=center;verticalAlign=middle;shape=mxgraph.arrows2.arrow;dy=0;dx=10;notch=10;fillColor=#d5e8d4;strokeColor=#82b366;" vertex="1" parent="1">
          <mxGeometry x="520" y="630" width="200" height="100" as="geometry" />
        </mxCell>
      </root>
    </mxGraphModel>
  </diagram>
</mxfile>
